<svg width="210" height="42" viewBox="0 0 210 42" fill="none" xmlns="http://www.w3.org/2000/svg">
<path d="M127.1 33.9509C125.326 33.9509 123.739 33.5678 122.338 32.8016C120.937 32.0134 119.831 30.9407 119.021 29.5833C118.233 28.2041 117.839 26.6497 117.839 24.9201V10.7335H121.386V24.6246C121.386 25.7411 121.648 26.7482 122.174 27.6458C122.699 28.5215 123.389 29.2221 124.243 29.7475C125.118 30.2729 126.071 30.5356 127.1 30.5356C128.194 30.5356 129.18 30.2729 130.055 29.7475C130.953 29.2221 131.664 28.5215 132.19 27.6458C132.715 26.7482 132.978 25.7411 132.978 24.6246V10.7335H136.36V24.9201C136.36 26.6497 135.955 28.2041 135.145 29.5833C134.357 30.9407 133.263 32.0134 131.861 32.8016C130.46 33.5678 128.873 33.9509 127.1 33.9509Z" fill="url(#paint0_linear_548_941)"/>
<path d="M4.04248 33.7441V10.7566H13.6316C15.0984 10.7566 16.3353 10.9755 17.3424 11.4134C18.3495 11.8512 19.1048 12.508 19.6083 13.3837C20.1338 14.2376 20.3965 15.2884 20.3965 16.5363C20.3965 17.7842 20.0462 18.846 19.3456 19.7217C18.6669 20.5975 17.7146 21.1995 16.4886 21.5279V20.8711C17.5176 21.09 18.4152 21.4841 19.1814 22.0533C19.9477 22.6007 20.5388 23.2903 20.9547 24.1222C21.3926 24.9541 21.6115 25.9065 21.6115 26.9792C21.6115 28.0739 21.4364 29.0481 21.0861 29.9019C20.7577 30.7339 20.2542 31.4344 19.5755 32.0037C18.9187 32.5729 18.1196 33.0107 17.1782 33.3172C16.2368 33.6018 15.1641 33.7441 13.96 33.7441H4.04248ZM7.58913 30.3288H13.7629C15.0984 30.3288 16.1383 30.0333 16.8827 29.4422C17.627 28.8511 17.9992 28.0082 17.9992 26.9136C17.9992 26.2349 17.8131 25.6547 17.4409 25.1731C17.0906 24.6914 16.5871 24.3302 15.9303 24.0894C15.2735 23.8267 14.4963 23.6953 13.5987 23.6953H7.58913V30.3288ZM7.58913 20.28H13.4345C14.0913 20.28 14.6715 20.1486 15.175 19.8859C15.7004 19.6232 16.1055 19.262 16.3901 18.8022C16.6966 18.3425 16.8498 17.8171 16.8498 17.2259C16.8498 16.2408 16.5214 15.4855 15.8646 14.96C15.2079 14.4346 14.2665 14.1719 13.0405 14.1719H7.58913V20.28Z" fill="url(#paint1_linear_548_941)"/>
<path d="M43.9147 33.6797L52.8142 10.6921H56.4265L65.2603 33.6797H61.4838L56.2295 19.8215C56.1638 19.6682 56.0325 19.296 55.8354 18.7049C55.6603 18.1138 55.4523 17.457 55.2115 16.7346C54.9707 16.0121 54.7517 15.3553 54.5547 14.7642C54.3576 14.1512 54.2263 13.7571 54.1606 13.582L54.9159 13.5492C54.7846 13.9213 54.6204 14.392 54.4233 14.9613C54.2482 15.5305 54.0511 16.1325 53.8322 16.7674C53.6352 17.4023 53.4381 18.0044 53.2411 18.5736C53.0441 19.1209 52.8799 19.5807 52.7485 19.9528L47.5271 33.6797H43.9147ZM47.8555 27.9656L49.169 24.5503H59.6119L61.1226 27.9656H47.8555Z" fill="url(#paint2_linear_548_941)"/>
<rect x="26.1816" y="14.5332" width="3.52356" height="1.00326" fill="url(#paint3_linear_548_941)"/>
<rect x="26.1816" y="13.2441" width="14.1583" height="1.00326" fill="url(#paint4_linear_548_941)"/>
<rect x="26.1816" y="10.5762" width="14.1583" height="2.13915" fill="url(#paint5_linear_548_941)"/>
<rect x="26.1816" y="31.3359" width="13.7834" height="2.18182" fill="url(#paint6_linear_548_941)"/>
<rect x="26.1816" y="29.8477" width="13.7834" height="1.00326" fill="url(#paint7_linear_548_941)"/>
<rect x="26.1816" y="22.8008" width="13.7834" height="1.00326" fill="url(#paint8_linear_548_941)"/>
<rect x="26.1816" y="21.4668" width="13.7834" height="1.00326" fill="url(#paint9_linear_548_941)"/>
<rect x="26.1816" y="20.1348" width="13.7834" height="1.00326" fill="url(#paint10_linear_548_941)"/>
<rect x="26.1816" y="24.373" width="6.35389" height="1.00326" fill="url(#paint11_linear_548_941)"/>
<rect x="26.1816" y="15.8262" width="2.5261" height="1.00326" fill="url(#paint12_linear_548_941)"/>
<rect x="26.1816" y="25.6641" width="9.12063" height="1.00326" fill="url(#paint13_linear_548_941)"/>
<rect x="26.1816" y="17.1172" width="4.05298" height="1.00326" fill="url(#paint14_linear_548_941)"/>
<rect x="26.1816" y="26.957" width="6.946" height="1.00326" fill="url(#paint15_linear_548_941)"/>
<rect x="26.1816" y="18.5625" width="6.71375" height="1.00326" fill="url(#paint16_linear_548_941)"/>
<rect x="26.1816" y="28.4023" width="5.25311" height="1.00326" fill="url(#paint17_linear_548_941)"/>
<path d="M96.0093 33.7441V10.7566H105.598C107.065 10.7566 108.302 10.9755 109.309 11.4134C110.316 11.8512 111.072 12.508 111.575 13.3837C112.101 14.2376 112.363 15.2884 112.363 16.5363C112.363 17.7842 112.013 18.846 111.312 19.7217C110.634 20.5975 109.681 21.1995 108.455 21.5279V20.8711C109.484 21.09 110.382 21.4841 111.148 22.0533C111.914 22.6007 112.506 23.2903 112.922 24.1222C113.359 24.9541 113.578 25.9065 113.578 26.9792C113.578 28.0739 113.403 29.0481 113.053 29.9019C112.725 30.7339 112.221 31.4344 111.542 32.0037C110.886 32.5729 110.086 33.0107 109.145 33.3172C108.204 33.6018 107.131 33.7441 105.927 33.7441H96.0093ZM99.5559 30.3288H105.73C107.065 30.3288 108.105 30.0333 108.849 29.4422C109.594 28.8511 109.966 28.0082 109.966 26.9136C109.966 26.2349 109.78 25.6547 109.408 25.1731C109.057 24.6914 108.554 24.3302 107.897 24.0894C107.24 23.8267 106.463 23.6953 105.566 23.6953H99.5559V30.3288ZM99.5559 20.28H105.401C106.058 20.28 106.638 20.1486 107.142 19.8859C107.667 19.6232 108.072 19.262 108.357 18.8022C108.663 18.3425 108.817 17.8171 108.817 17.2259C108.817 16.2408 108.488 15.4855 107.831 14.96C107.175 14.4346 106.233 14.1719 105.007 14.1719H99.5559V20.28Z" fill="url(#paint18_linear_548_941)"/>
<path d="M142.542 33.7539V10.7664H151.54C153.182 10.7664 154.66 11.04 155.974 11.5873C157.309 12.1347 158.448 12.9228 159.389 13.9518C160.33 14.9807 161.053 16.1958 161.556 17.5969C162.06 18.9981 162.312 20.5525 162.312 22.2601C162.312 23.9678 162.06 25.5331 161.556 26.9562C161.053 28.3573 160.33 29.5724 159.389 30.6013C158.47 31.6084 157.342 32.3856 156.007 32.9329C154.671 33.4802 153.182 33.7539 151.54 33.7539H142.542ZM146.089 30.6998L145.991 30.3386H151.376C152.537 30.3386 153.566 30.1525 154.463 29.7803C155.383 29.4082 156.149 28.8827 156.762 28.2041C157.397 27.5035 157.878 26.6497 158.207 25.6426C158.535 24.6355 158.699 23.508 158.699 22.2601C158.699 21.0122 158.535 19.8957 158.207 18.9105C157.878 17.9034 157.397 17.0496 156.762 16.349C156.127 15.6485 155.361 15.1121 154.463 14.7399C153.566 14.3677 152.537 14.1816 151.376 14.1816H145.892L146.089 13.8861V30.6998Z" fill="url(#paint19_linear_548_941)"/>
<path d="M167.232 33.6797V10.6921H176.23C177.872 10.6921 179.35 10.9658 180.663 11.5131C181.999 12.0604 183.137 12.8486 184.079 13.8776C185.02 14.9065 185.742 16.1216 186.246 17.5227C186.749 18.9239 187.001 20.4783 187.001 22.1859C187.001 23.8936 186.749 25.4589 186.246 26.8819C185.742 28.2831 185.02 29.4981 184.079 30.5271C183.159 31.5342 182.032 32.3114 180.696 32.8587C179.361 33.406 177.872 33.6797 176.23 33.6797H167.232ZM170.779 30.6256L170.68 30.2644H176.066C177.226 30.2644 178.255 30.0783 179.153 29.7061C180.072 29.3339 180.838 28.8085 181.451 28.1298C182.086 27.4293 182.568 26.5754 182.896 25.5684C183.225 24.5613 183.389 23.4338 183.389 22.1859C183.389 20.938 183.225 19.8215 182.896 18.8363C182.568 17.8292 182.086 16.9754 181.451 16.2748C180.816 15.5743 180.05 15.0379 179.153 14.6657C178.255 14.2935 177.226 14.1074 176.066 14.1074H170.582L170.779 13.8119V30.6256Z" fill="url(#paint20_linear_548_941)"/>
<path d="M196.736 33.7539V22.293L196.966 23.9021L187.672 10.7664H191.941L199.035 20.9466L198.214 20.848L204.617 10.7664H208.689L199.79 24.2633L200.282 22.0303V33.7539H196.736Z" fill="url(#paint21_linear_548_941)"/>
<path d="M72.2871 33.7539V14.1816H65.8505V10.7664H82.4673V14.1816H75.8337V33.7539H72.2871Z" fill="url(#paint22_linear_548_941)"/>
<rect x="147.318" y="13.8496" width="1.27655" height="16.6442" fill="url(#paint23_linear_548_941)"/>
<rect x="171.939" y="13.8496" width="1.27655" height="16.6442" fill="url(#paint24_linear_548_941)"/>
<defs>
<linearGradient id="paint0_linear_548_941" x1="127.449" y1="0.753906" x2="127.449" y2="41.7539" gradientUnits="userSpaceOnUse">
<stop stop-color="#D5D1FF"/>
<stop offset="1" stop-color="white"/>
</linearGradient>
<linearGradient id="paint1_linear_548_941" x1="12.3242" y1="0.744141" x2="12.3242" y2="41.7441" gradientUnits="userSpaceOnUse">
<stop stop-color="#D5D1FF"/>
<stop offset="1" stop-color="white"/>
</linearGradient>
<linearGradient id="paint2_linear_548_941" x1="54.5938" y1="0.679687" x2="54.5938" y2="41.6797" gradientUnits="userSpaceOnUse">
<stop stop-color="#D5D1FF"/>
<stop offset="1" stop-color="white"/>
</linearGradient>
<linearGradient id="paint3_linear_548_941" x1="27.9434" y1="14.5332" x2="27.9434" y2="15.5365" gradientUnits="userSpaceOnUse">
<stop stop-color="#D5D1FF"/>
<stop offset="1" stop-color="white"/>
</linearGradient>
<linearGradient id="paint4_linear_548_941" x1="33.2608" y1="13.2441" x2="33.2608" y2="14.2474" gradientUnits="userSpaceOnUse">
<stop stop-color="#D5D1FF"/>
<stop offset="1" stop-color="white"/>
</linearGradient>
<linearGradient id="paint5_linear_548_941" x1="33.2608" y1="10.5762" x2="33.2608" y2="12.7153" gradientUnits="userSpaceOnUse">
<stop stop-color="#D5D1FF"/>
<stop offset="1" stop-color="white"/>
</linearGradient>
<linearGradient id="paint6_linear_548_941" x1="33.0733" y1="31.3359" x2="33.0733" y2="33.5178" gradientUnits="userSpaceOnUse">
<stop stop-color="#D5D1FF"/>
<stop offset="1" stop-color="white"/>
</linearGradient>
<linearGradient id="paint7_linear_548_941" x1="33.0733" y1="29.8477" x2="33.0733" y2="30.8509" gradientUnits="userSpaceOnUse">
<stop stop-color="#D5D1FF"/>
<stop offset="1" stop-color="white"/>
</linearGradient>
<linearGradient id="paint8_linear_548_941" x1="33.0733" y1="22.8008" x2="33.0733" y2="23.804" gradientUnits="userSpaceOnUse">
<stop stop-color="#D5D1FF"/>
<stop offset="1" stop-color="white"/>
</linearGradient>
<linearGradient id="paint9_linear_548_941" x1="33.0733" y1="21.4668" x2="33.0733" y2="22.4701" gradientUnits="userSpaceOnUse">
<stop stop-color="#D5D1FF"/>
<stop offset="1" stop-color="white"/>
</linearGradient>
<linearGradient id="paint10_linear_548_941" x1="33.0733" y1="20.1348" x2="33.0733" y2="21.138" gradientUnits="userSpaceOnUse">
<stop stop-color="#D5D1FF"/>
<stop offset="1" stop-color="white"/>
</linearGradient>
<linearGradient id="paint11_linear_548_941" x1="29.3586" y1="24.373" x2="29.3586" y2="25.3763" gradientUnits="userSpaceOnUse">
<stop stop-color="#D5D1FF"/>
<stop offset="1" stop-color="white"/>
</linearGradient>
<linearGradient id="paint12_linear_548_941" x1="27.4447" y1="15.8262" x2="27.4447" y2="16.8294" gradientUnits="userSpaceOnUse">
<stop stop-color="#D5D1FF"/>
<stop offset="1" stop-color="white"/>
</linearGradient>
<linearGradient id="paint13_linear_548_941" x1="30.742" y1="25.6641" x2="30.742" y2="26.6673" gradientUnits="userSpaceOnUse">
<stop stop-color="#D5D1FF"/>
<stop offset="1" stop-color="white"/>
</linearGradient>
<linearGradient id="paint14_linear_548_941" x1="28.2081" y1="17.1172" x2="28.2081" y2="18.1204" gradientUnits="userSpaceOnUse">
<stop stop-color="#D5D1FF"/>
<stop offset="1" stop-color="white"/>
</linearGradient>
<linearGradient id="paint15_linear_548_941" x1="29.6546" y1="26.957" x2="29.6546" y2="27.9603" gradientUnits="userSpaceOnUse">
<stop stop-color="#D5D1FF"/>
<stop offset="1" stop-color="white"/>
</linearGradient>
<linearGradient id="paint16_linear_548_941" x1="29.5385" y1="18.5625" x2="29.5385" y2="19.5658" gradientUnits="userSpaceOnUse">
<stop stop-color="#D5D1FF"/>
<stop offset="1" stop-color="white"/>
</linearGradient>
<linearGradient id="paint17_linear_548_941" x1="28.8082" y1="28.4023" x2="28.8082" y2="29.4056" gradientUnits="userSpaceOnUse">
<stop stop-color="#D5D1FF"/>
<stop offset="1" stop-color="white"/>
</linearGradient>
<linearGradient id="paint18_linear_548_941" x1="104.291" y1="0.744141" x2="104.291" y2="41.7441" gradientUnits="userSpaceOnUse">
<stop stop-color="#D5D1FF"/>
<stop offset="1" stop-color="white"/>
</linearGradient>
<linearGradient id="paint19_linear_548_941" x1="151.824" y1="0.753906" x2="151.824" y2="41.7539" gradientUnits="userSpaceOnUse">
<stop stop-color="#D5D1FF"/>
<stop offset="1" stop-color="white"/>
</linearGradient>
<linearGradient id="paint20_linear_548_941" x1="176.514" y1="0.679687" x2="176.514" y2="41.6797" gradientUnits="userSpaceOnUse">
<stop stop-color="#D5D1FF"/>
<stop offset="1" stop-color="white"/>
</linearGradient>
<linearGradient id="paint21_linear_548_941" x1="198.344" y1="0.753906" x2="198.344" y2="41.7539" gradientUnits="userSpaceOnUse">
<stop stop-color="#D5D1FF"/>
<stop offset="1" stop-color="white"/>
</linearGradient>
<linearGradient id="paint22_linear_548_941" x1="74.2012" y1="0.753906" x2="74.2012" y2="41.7539" gradientUnits="userSpaceOnUse">
<stop stop-color="#D5D1FF"/>
<stop offset="1" stop-color="white"/>
</linearGradient>
<linearGradient id="paint23_linear_548_941" x1="147.957" y1="13.8496" x2="147.957" y2="30.4938" gradientUnits="userSpaceOnUse">
<stop stop-color="#D5D1FF"/>
<stop offset="1" stop-color="white"/>
</linearGradient>
<linearGradient id="paint24_linear_548_941" x1="172.578" y1="13.8496" x2="172.578" y2="30.4938" gradientUnits="userSpaceOnUse">
<stop stop-color="#D5D1FF"/>
<stop offset="1" stop-color="white"/>
</linearGradient>
</defs>
</svg>
