<svg width="835" height="166" viewBox="0 0 835 166" fill="none" xmlns="http://www.w3.org/2000/svg">
<path d="M506.463 133.087C499.354 133.087 492.992 131.551 487.375 128.479C481.758 125.32 477.325 121.019 474.078 115.578C470.919 110.048 469.339 103.817 469.339 96.8837V40.0121H483.557V95.6989C483.557 100.175 484.61 104.212 486.716 107.81C488.823 111.321 491.587 114.13 495.01 116.236C498.521 118.342 502.338 119.395 506.463 119.395C510.852 119.395 514.801 118.342 518.312 116.236C521.91 114.13 524.762 111.321 526.869 107.81C528.975 104.212 530.028 100.175 530.028 95.6989V40.0121H543.588V96.8837C543.588 103.817 541.964 110.048 538.717 115.578C535.557 121.019 531.169 125.32 525.552 128.479C519.935 131.551 513.572 133.087 506.463 133.087Z" fill="url(#paint0_linear_548_940)"/>
<path d="M13.1475 132.258V40.1047H51.5886C57.4688 40.1047 62.4275 40.9823 66.4647 42.7376C70.5019 44.4929 73.5298 47.1259 75.5484 50.6365C77.6547 54.0593 78.7079 58.272 78.7079 63.2746C78.7079 68.2772 77.3037 72.5338 74.4952 76.0444C71.7745 79.555 67.9567 81.9685 63.0419 83.285V80.652C67.1668 81.5297 70.7652 83.1095 73.837 85.3914C76.9087 87.5855 79.2784 90.3501 80.9459 93.6851C82.7012 97.0202 83.5789 100.838 83.5789 105.138C83.5789 109.527 82.8768 113.432 81.4725 116.855C80.156 120.19 78.1375 122.999 75.4167 125.281C72.7838 127.562 69.5804 129.318 65.8065 130.546C62.0326 131.687 57.7321 132.258 52.905 132.258H13.1475ZM27.3655 118.566H52.1152C57.4688 118.566 61.6376 117.382 64.6217 115.012C67.6057 112.642 69.0977 109.263 69.0977 104.875C69.0977 102.154 68.3517 99.8287 66.8597 97.8979C65.4554 95.967 63.4368 94.5189 60.8039 93.5535C58.1709 92.5003 55.0553 91.9737 51.4569 91.9737H27.3655V118.566ZM27.3655 78.2824H50.7987C53.4316 78.2824 55.7574 77.7558 57.776 76.7026C59.8823 75.6494 61.506 74.2013 62.6469 72.3583C63.8757 70.5152 64.49 68.4088 64.49 66.0392C64.49 62.0898 63.1735 59.0619 60.5406 56.9555C57.9076 54.8492 54.1337 53.796 49.2189 53.796H27.3655V78.2824Z" fill="url(#paint1_linear_548_940)"/>
<path d="M172.99 132L208.667 39.8468H223.148L258.561 132H243.422L222.358 76.4448C222.095 75.8305 221.568 74.3385 220.778 71.9688C220.076 69.5992 219.243 66.9662 218.277 64.07C217.312 61.1737 216.434 58.5408 215.644 56.1711C214.854 53.7137 214.328 52.1339 214.064 51.4318L217.092 51.3002C216.566 52.7922 215.907 54.6791 215.118 56.961C214.415 59.2429 213.626 61.6564 212.748 64.2016C211.958 66.7468 211.168 69.1603 210.378 71.4422C209.588 73.6363 208.93 75.4794 208.404 76.9714L187.472 132H172.99ZM188.788 109.093L194.054 95.402H235.918L241.974 109.093H188.788Z" fill="url(#paint2_linear_548_940)"/>
<rect x="101.9" y="55.5391" width="14.1253" height="4.0219" fill="url(#paint3_linear_548_940)"/>
<rect x="101.9" y="50.3672" width="56.7581" height="4.0219" fill="url(#paint4_linear_548_940)"/>
<rect x="101.9" y="39.6777" width="56.7581" height="8.57548" fill="url(#paint5_linear_548_940)"/>
<rect x="101.9" y="122.9" width="55.2552" height="8.74655" fill="url(#paint6_linear_548_940)"/>
<rect x="101.9" y="116.932" width="55.2552" height="4.0219" fill="url(#paint7_linear_548_940)"/>
<rect x="101.9" y="88.6875" width="55.2552" height="4.0219" fill="url(#paint8_linear_548_940)"/>
<rect x="101.9" y="83.3418" width="55.2552" height="4.0219" fill="url(#paint9_linear_548_940)"/>
<rect x="101.9" y="77.9961" width="55.2552" height="4.0219" fill="url(#paint10_linear_548_940)"/>
<rect x="101.9" y="94.9863" width="25.4717" height="4.0219" fill="url(#paint11_linear_548_940)"/>
<rect x="101.9" y="60.7227" width="10.1267" height="4.0219" fill="url(#paint12_linear_548_940)"/>
<rect x="101.9" y="100.164" width="36.5631" height="4.0219" fill="url(#paint13_linear_548_940)"/>
<rect x="101.9" y="65.8945" width="16.2477" height="4.0219" fill="url(#paint14_linear_548_940)"/>
<rect x="101.9" y="105.34" width="27.8453" height="4.0219" fill="url(#paint15_linear_548_940)"/>
<rect x="101.9" y="71.6953" width="26.9143" height="4.0219" fill="url(#paint16_linear_548_940)"/>
<rect x="101.9" y="111.139" width="21.0588" height="4.0219" fill="url(#paint17_linear_548_940)"/>
<path d="M381.827 132.258V40.1047H420.268C426.149 40.1047 431.107 40.9823 435.144 42.7376C439.182 44.4929 442.209 47.1259 444.228 50.6365C446.334 54.0593 447.388 58.272 447.388 63.2746C447.388 68.2772 445.983 72.5338 443.175 76.0444C440.454 79.555 436.636 81.9685 431.722 83.285V80.652C435.847 81.5297 439.445 83.1095 442.517 85.3914C445.588 87.5855 447.958 90.3501 449.626 93.6851C451.381 97.0202 452.259 100.838 452.259 105.138C452.259 109.527 451.556 113.432 450.152 116.855C448.836 120.19 446.817 122.999 444.096 125.281C441.463 127.562 438.26 129.318 434.486 130.546C430.712 131.687 426.412 132.258 421.585 132.258H381.827ZM396.045 118.566H420.795C426.149 118.566 430.317 117.382 433.301 115.012C436.285 112.642 437.777 109.263 437.777 104.875C437.777 102.154 437.031 99.8287 435.539 97.8979C434.135 95.967 432.117 94.5189 429.484 93.5535C426.851 92.5003 423.735 91.9737 420.137 91.9737H396.045V118.566ZM396.045 78.2824H419.478C422.111 78.2824 424.437 77.7558 426.456 76.7026C428.562 75.6494 430.186 74.2013 431.327 72.3583C432.555 70.5152 433.17 68.4088 433.17 66.0392C433.17 62.0898 431.853 59.0619 429.22 56.9555C426.587 54.8492 422.813 53.796 417.899 53.796H396.045V78.2824Z" fill="url(#paint18_linear_548_940)"/>
<path d="M568.366 132.297V40.1437H604.438C611.02 40.1437 616.944 41.2408 622.21 43.4349C627.564 45.629 632.127 48.7886 635.901 52.9135C639.675 57.0385 642.572 61.9094 644.59 67.5264C646.609 73.1433 647.618 79.3746 647.618 86.2203C647.618 93.066 646.609 99.3412 644.59 105.046C642.572 110.663 639.675 115.534 635.901 119.659C632.215 123.696 627.695 126.812 622.342 129.006C616.988 131.2 611.02 132.297 604.438 132.297H568.366ZM582.584 120.054L582.189 118.606H603.779C608.431 118.606 612.556 117.86 616.154 116.368C619.84 114.876 622.912 112.769 625.37 110.048C627.915 107.24 629.846 103.817 631.162 99.78C632.479 95.7428 633.137 91.2229 633.137 86.2203C633.137 81.2177 632.479 76.7417 631.162 72.7923C629.846 68.7551 627.915 65.3323 625.37 62.5238C622.824 59.7153 619.753 57.5651 616.154 56.073C612.556 54.581 608.431 53.835 603.779 53.835H581.794L582.584 52.6502V120.054Z" fill="url(#paint19_linear_548_940)"/>
<path d="M667.351 132V39.8468H703.422C710.004 39.8468 715.929 40.9439 721.194 43.138C726.548 45.3322 731.112 48.4917 734.886 52.6166C738.66 56.7416 741.556 61.6125 743.574 67.2295C745.593 72.8465 746.602 79.0778 746.602 85.9234C746.602 92.7691 745.593 99.0443 743.574 104.749C741.556 110.366 738.66 115.237 734.886 119.362C731.2 123.399 726.68 126.515 721.326 128.709C715.972 130.903 710.004 132 703.422 132H667.351ZM681.569 119.757L681.174 118.309H702.764C707.415 118.309 711.54 117.563 715.139 116.071C718.825 114.579 721.897 112.472 724.354 109.752C726.899 106.943 728.83 103.52 730.146 99.4831C731.463 95.4459 732.121 90.926 732.121 85.9234C732.121 80.9208 731.463 76.4448 730.146 72.4954C728.83 68.4582 726.899 65.0354 724.354 62.2269C721.809 59.4184 718.737 57.2682 715.139 55.7762C711.54 54.2842 707.415 53.5382 702.764 53.5382H680.779L681.569 52.3533V119.757Z" fill="url(#paint20_linear_548_940)"/>
<path d="M785.616 132.297V86.3519L786.538 92.8027L749.281 40.1437H766.395L794.831 80.9544L791.54 80.5595L817.211 40.1437H833.536L797.859 94.2508L799.834 85.2988V132.297H785.616Z" fill="url(#paint21_linear_548_940)"/>
<path d="M286.727 132.297V53.835H260.924V40.1437H327.538V53.835H300.945V132.297H286.727Z" fill="url(#paint22_linear_548_940)"/>
<rect x="587.523" y="53.8164" width="5.11746" height="64.7949" fill="url(#paint23_linear_548_940)"/>
<rect x="686.221" y="53.5332" width="5.11746" height="64.7773" fill="url(#paint24_linear_548_940)"/>
<defs>
<linearGradient id="paint0_linear_548_940" x1="506.754" y1="0.296875" x2="506.754" y2="165.297" gradientUnits="userSpaceOnUse">
<stop stop-color="#D5D1FF"/>
<stop offset="1" stop-color="white"/>
</linearGradient>
<linearGradient id="paint1_linear_548_940" x1="45.2461" y1="0.257812" x2="45.2461" y2="165.258" gradientUnits="userSpaceOnUse">
<stop stop-color="#D5D1FF"/>
<stop offset="1" stop-color="white"/>
</linearGradient>
<linearGradient id="paint2_linear_548_940" x1="216.199" y1="0" x2="216.199" y2="165" gradientUnits="userSpaceOnUse">
<stop stop-color="#D5D1FF"/>
<stop offset="1" stop-color="white"/>
</linearGradient>
<linearGradient id="paint3_linear_548_940" x1="108.963" y1="55.5391" x2="108.963" y2="59.561" gradientUnits="userSpaceOnUse">
<stop stop-color="#D5D1FF"/>
<stop offset="1" stop-color="white"/>
</linearGradient>
<linearGradient id="paint4_linear_548_940" x1="130.279" y1="50.3672" x2="130.279" y2="54.3891" gradientUnits="userSpaceOnUse">
<stop stop-color="#D5D1FF"/>
<stop offset="1" stop-color="white"/>
</linearGradient>
<linearGradient id="paint5_linear_548_940" x1="130.279" y1="39.6777" x2="130.279" y2="48.2532" gradientUnits="userSpaceOnUse">
<stop stop-color="#D5D1FF"/>
<stop offset="1" stop-color="white"/>
</linearGradient>
<linearGradient id="paint6_linear_548_940" x1="129.528" y1="122.9" x2="129.528" y2="131.647" gradientUnits="userSpaceOnUse">
<stop stop-color="#D5D1FF"/>
<stop offset="1" stop-color="white"/>
</linearGradient>
<linearGradient id="paint7_linear_548_940" x1="129.528" y1="116.932" x2="129.528" y2="120.954" gradientUnits="userSpaceOnUse">
<stop stop-color="#D5D1FF"/>
<stop offset="1" stop-color="white"/>
</linearGradient>
<linearGradient id="paint8_linear_548_940" x1="129.528" y1="88.6875" x2="129.528" y2="92.7094" gradientUnits="userSpaceOnUse">
<stop stop-color="#D5D1FF"/>
<stop offset="1" stop-color="white"/>
</linearGradient>
<linearGradient id="paint9_linear_548_940" x1="129.528" y1="83.3418" x2="129.528" y2="87.3637" gradientUnits="userSpaceOnUse">
<stop stop-color="#D5D1FF"/>
<stop offset="1" stop-color="white"/>
</linearGradient>
<linearGradient id="paint10_linear_548_940" x1="129.528" y1="77.9961" x2="129.528" y2="82.018" gradientUnits="userSpaceOnUse">
<stop stop-color="#D5D1FF"/>
<stop offset="1" stop-color="white"/>
</linearGradient>
<linearGradient id="paint11_linear_548_940" x1="114.636" y1="94.9863" x2="114.636" y2="99.0082" gradientUnits="userSpaceOnUse">
<stop stop-color="#D5D1FF"/>
<stop offset="1" stop-color="white"/>
</linearGradient>
<linearGradient id="paint12_linear_548_940" x1="106.964" y1="60.7227" x2="106.964" y2="64.7446" gradientUnits="userSpaceOnUse">
<stop stop-color="#D5D1FF"/>
<stop offset="1" stop-color="white"/>
</linearGradient>
<linearGradient id="paint13_linear_548_940" x1="120.182" y1="100.164" x2="120.182" y2="104.186" gradientUnits="userSpaceOnUse">
<stop stop-color="#D5D1FF"/>
<stop offset="1" stop-color="white"/>
</linearGradient>
<linearGradient id="paint14_linear_548_940" x1="110.024" y1="65.8945" x2="110.024" y2="69.9164" gradientUnits="userSpaceOnUse">
<stop stop-color="#D5D1FF"/>
<stop offset="1" stop-color="white"/>
</linearGradient>
<linearGradient id="paint15_linear_548_940" x1="115.823" y1="105.34" x2="115.823" y2="109.362" gradientUnits="userSpaceOnUse">
<stop stop-color="#D5D1FF"/>
<stop offset="1" stop-color="white"/>
</linearGradient>
<linearGradient id="paint16_linear_548_940" x1="115.358" y1="71.6953" x2="115.358" y2="75.7172" gradientUnits="userSpaceOnUse">
<stop stop-color="#D5D1FF"/>
<stop offset="1" stop-color="white"/>
</linearGradient>
<linearGradient id="paint17_linear_548_940" x1="112.43" y1="111.139" x2="112.43" y2="115.161" gradientUnits="userSpaceOnUse">
<stop stop-color="#D5D1FF"/>
<stop offset="1" stop-color="white"/>
</linearGradient>
<linearGradient id="paint18_linear_548_940" x1="413.926" y1="0.257812" x2="413.926" y2="165.258" gradientUnits="userSpaceOnUse">
<stop stop-color="#D5D1FF"/>
<stop offset="1" stop-color="white"/>
</linearGradient>
<linearGradient id="paint19_linear_548_940" x1="604.965" y1="0.296875" x2="604.965" y2="165.297" gradientUnits="userSpaceOnUse">
<stop stop-color="#D5D1FF"/>
<stop offset="1" stop-color="white"/>
</linearGradient>
<linearGradient id="paint20_linear_548_940" x1="703.949" y1="0" x2="703.949" y2="165" gradientUnits="userSpaceOnUse">
<stop stop-color="#D5D1FF"/>
<stop offset="1" stop-color="white"/>
</linearGradient>
<linearGradient id="paint21_linear_548_940" x1="791.465" y1="0.296875" x2="791.465" y2="165.297" gradientUnits="userSpaceOnUse">
<stop stop-color="#D5D1FF"/>
<stop offset="1" stop-color="white"/>
</linearGradient>
<linearGradient id="paint22_linear_548_940" x1="294.316" y1="0.296875" x2="294.316" y2="165.297" gradientUnits="userSpaceOnUse">
<stop stop-color="#D5D1FF"/>
<stop offset="1" stop-color="white"/>
</linearGradient>
<linearGradient id="paint23_linear_548_940" x1="590.082" y1="53.8164" x2="590.082" y2="118.611" gradientUnits="userSpaceOnUse">
<stop stop-color="#D5D1FF"/>
<stop offset="1" stop-color="white"/>
</linearGradient>
<linearGradient id="paint24_linear_548_940" x1="688.779" y1="53.5332" x2="688.779" y2="118.311" gradientUnits="userSpaceOnUse">
<stop stop-color="#D5D1FF"/>
<stop offset="1" stop-color="white"/>
</linearGradient>
</defs>
</svg>
